<?xml version="1.0" encoding="UTF-8" standalone="no"?>
<svg
   xmlns:dc="http://purl.org/dc/elements/1.1/"
   xmlns:cc="http://creativecommons.org/ns#"
   xmlns:rdf="http://www.w3.org/1999/02/22-rdf-syntax-ns#"
   xmlns:svg="http://www.w3.org/2000/svg"
   xmlns="http://www.w3.org/2000/svg"
   version="1.1"
   id="svg9693"
   viewBox="0 0 354.3307 374.08568"
   height="105.57529mm"
   width="100mm">
  <defs
     id="defs9695" />
  <metadata
     id="metadata9698">
    <rdf:RDF>
      <cc:Work
         rdf:about="">
        <dc:format>image/svg+xml</dc:format>
        <dc:type
           rdf:resource="http://purl.org/dc/dcmitype/StillImage" />
        <dc:title></dc:title>
      </cc:Work>
    </rdf:RDF>
  </metadata>
  <g
     id="layer1"
     transform="matrix(2.5011017,0,0,2.5011017,-533.84325,-945.71597)">
    <path
       style="fill:#000000;fill-opacity:1;stroke:none"
       d="m 278.35723,452.73304 0,-8.11914 -3.32422,0 -3.32617,0 0,8.11914 6.65039,0 z"
       id="path4313" />
    <path
       style="fill:#000000;fill-opacity:1;stroke:none"
       d="m 217.16192,452.73304 4.80469,0 -0.95703,-4.27344 -1.83203,-8.78711 1.50781,-2.7207 5.31836,-2.54883 5.81445,-1.42773 4.88672,-1.09961 4.91406,-0.94922 0.0703,9.09375 0.002,9.0957 -0.006,3.61719 8.08008,0 0,-8.28711 0,-9.14258 2.32617,0 5.33398,4.83008 0.25391,7.85742 -0.0312,4.74219 7.07617,0 -0.0117,-6.20703 -0.0996,-7.44531 -1.14062,-7.29688 -3.32422,-3.61523 -2.07227,-1.0918 4.6543,-1.08398 6.48438,-1.55078 1.82812,-0.4668 0,4.36719 0,4.36914 3.82227,-0.20118 3.82421,-0.19921 0.19336,-5.07422 2.08399,-5.45508 3.6289,-0.81445 1.74024,-0.43555 0,9.11914 0,9.12305 0,9.12109 0,4.83789 7.31445,0 0,-1.58789 0,-8.16211 0,-8.16211 0,-8.16015 3.27735,0 4.65429,1.75195 1.33399,7.10156 0.0332,7.35938 -0.0859,7.2207 -0.28125,2.63867 7.51172,0 0.14453,-3.86523 0.0352,-7.23438 -0.041,-7.66992 -0.33789,-7.66016 -3.17968,-6.62304 -4.87696,-1.56641 -3.20117,-0.4668 4.73242,-0.90234 6.74024,0.2832 2.70117,3.58008 1.8789,7.87109 1.83008,7.88477 1.81641,7.88672 1.80859,7.88867 0.13477,0.59375 4.78125,0 -0.1836,-0.81055 -2.10156,-9.31836 -2.09375,-9.31835 -2.07812,-9.32227 -2.02149,-9.33594 2.27539,-6.57422 3.01953,-4.86523 -6.17773,0 -3.66406,5.27539 -6.3086,2.35156 -6.58007,1.6211 -6.60743,1.51171 -7.23437,1.61133 -7.25391,1.52539 -6.52539,0.0996 4.58399,-6.33593 4.5625,-6.35157 0.96875,-1.30859 -6.3711,0 -1.33008,1.87109 -4.56835,6.3711 -4.52735,6.40039 -3.10937,2.82226 -9.57227,2.4336 -9.62305,2.23828 -9.72461,2.19726 -9.64648,1.42188 5.12695,-6.51367 5.26563,-6.40821 6.31055,-7.48828 6.04882,-5.3457 -8.10547,0 -2.1289,2.35547 -5.71289,6.79101 -5.68946,6.8125 -5.63085,6.85743 -5.20899,7.1582 1.14844,7.46875 1.53125,7.41406 1.03906,4.6875 z"
       id="path4311" />
    <path
       style="fill:#000000;fill-opacity:1;stroke:none"
       d="m 337.29864,491.09046 5.88672,0 3.01953,-6.24804 3.34375,-6.96875 3.25195,-7.01172 2.3125,-7.29883 -2.01562,-9.1875 -0.3711,-1.64258 -4.74218,0 0.75976,3.49805 1.42578,7.39844 -3.21679,7.98828 -3.66602,7.80859 -3.66211,7.40039 -2.32617,4.26367 z"
       id="path4326" />
    <path
       style="fill:#000000;fill-opacity:1;stroke:none"
       d="m 328.67169,491.09046 5.83984,0 -1.47266,-3.77929 -1.76953,-7.45703 -2.15234,-9.30665 -2.12695,-9.31054 -1.92969,-8.50391 -4.78125,0 1.66797,7.29492 2.18164,9.64844 2.13672,9.6582 2.05664,9.67578 0.34961,2.08008 z"
       id="path4324" />
    <path
       style="fill:#000000;fill-opacity:1;stroke:none"
       d="m 286.33575,491.09046 7.31445,0 0,-4.91992 0,-9.14258 0,-9.14258 3.17774,0 4.65429,1.03516 1.45508,8.26953 0.0215,8.68555 -0.0176,5.21484 7.87304,0 0.008,-0.86914 0.0801,-8.61328 -0.16602,-8.61133 -2.57617,-7.99218 -0.93555,-2.58008 2.74219,-6.32813 0.12695,-3.36328 -7.51172,0 -0.48047,4.51367 -4.64453,1.86133 -3.80664,0.19922 0,-6.57422 -7.31445,0 0,4.2832 0,9.12305 0,9.11914 0,9.12305 0,6.70898 z"
       id="path4322" />
    <path
       style="fill:#000000;fill-opacity:1;stroke:none"
       d="m 271.70684,491.09046 6.65039,0 0,-3.32422 0,-8.63086 0,-8.63085 0,-8.63086 0,-8.62891 0,-0.51172 -6.65039,0 0,0.6875 0,8.80664 0,8.80664 0,8.8086 0,8.80664 0,2.4414 z"
       id="path4320" />
    <path
       style="fill:#000000;fill-opacity:1;stroke:none"
       d="m 241.56817,491.09046 8.19727,0 0,-0.76172 0,-9.80859 3.1582,-0.004 5.61719,-0.6914 4.37109,-3.44727 1.81445,-2.74219 0,-9.83203 0,-9.83203 -0.002,-1.23828 -7.07617,0 -0.0195,3.12305 -0.14844,7.59765 -1.63867,7.15235 -3.82227,1.26953 -2.2539,0 0,-9.14258 0,-9.14258 0,-0.85742 -8.08008,0 -0.008,5.47852 -0.0234,9.0957 -0.0293,9.09375 -0.0351,9.05859 -0.0215,5.63086 z"
       id="path4318" />
    <path
       style="fill:#000000;fill-opacity:1;stroke:none"
       d="m 230.75372,491.09046 -4.88672,0 1.98047,8.71289 1.95703,8.42188 2.05078,8.40039 2.35742,8.31445 2.45899,2.11914 2.15234,0.62891 9.54688,-1.94531 9.50976,-2.12696 9.50195,-2.16406 9.49805,-2.18555 9.49219,-2.20312 9.48828,-2.2207 9.48437,-2.23633 9.48047,-2.25977 9.46875,-2.29687 9.42579,-2.47071 3.16601,-1.45507 3.10742,-6.42774 3.10547,-6.42773 0.0859,-0.17774 -5.88672,0 -1.625,2.97852 -1.16211,-2.97852 -5.83984,0 1.29101,7.66211 -4.56054,3.79883 -5.98633,1.64648 -7.8125,1.8125 -0.85938,-7.71874 0.0703,-7.20118 -7.87304,0 -0.0117,3.55078 -1.30078,8.48633 -4.6543,1.33008 -3.32422,0 0,-9.14258 0,-4.22461 -7.31445,0 0,2.41211 0,9.1211 0,9.12304 -1.82813,0.40821 -3.99023,0.95703 -2.16016,0.54687 0,-8.63086 0,-8.63086 0,-5.30664 -6.65039,0 0,6.36719 0,8.80469 0,8.80859 -1.49609,0.34571 -5.12305,1.17187 -5.12304,1.16797 0,0.002 -9.47461,1.99414 -0.66993,-9.76172 -0.0547,-9.85547 0,-9.04492 -8.19727,0 -0.0117,3.43164 -0.0352,9.0586 -0.0332,9.06054 -0.0351,9.06055 -1.66211,-0.83008 -2.44336,-2.4707 -2.20313,-8.70117 -2.07812,-8.73633 -2.04883,-8.74023 -0.26367,-1.13282 z"
       id="path4316" />
    <path
       style="fill:#000000;fill-opacity:1;stroke:none"
       d="m 217.16192,452.73304 0.59961,2.70313 2.01758,8.87304 2.01758,8.87305 2.01757,8.875 2.01563,8.87109 0.0371,0.16211 4.88672,0 -1.76953,-7.61328 -2.01953,-8.74805 -2.00586,-8.75195 -1.98829,-8.75586 -1.0039,-4.48828 -4.80469,0 z"
       id="path4309" />
    <path
       style="fill:#000000;fill-opacity:1;stroke:none"
       d="m 341.34942,403.18812 -4.59766,0 0.73047,3.19141 2,8.7832 2.00196,8.7832 2.0039,8.78516 2.00196,8.7832 1.65429,7.35156 0.83985,3.86719 4.74218,0 -1.70312,-7.53125 -2.0918,-9.16992 -2.10156,-9.16797 -2.11328,-9.16602 -2.12109,-9.1621 -1.2461,-5.34766 z"
       id="path4307" />
    <path
       style="fill:#000000;fill-opacity:1;stroke:none"
       d="m 330.22247,378.11976 -9.59961,1.92187 -9.56836,2.08399 -9.56055,2.11914 -9.55469,2.14062 -9.55078,2.15625 -9.54882,2.17383 -9.54493,2.19141 -9.54101,2.20898 -6.97266,1.7461 -6.2793,3.35156 -2.6875,2.97461 8.10547,0 1.22852,-1.08594 3.98828,-1.375 7.72461,-1.61328 7.69922,-1.73633 7.39844,-1.66015 7.42968,-1.48829 -3.63672,5.46875 -2.48242,3.49024 6.3711,0 3.77148,-5.08984 5.16797,-6.03516 8.85742,-2.25 8.92188,-2.01172 8.9414,-1.91797 8.98828,-1.65039 -2.30468,5.81836 -3.48828,5.68945 -4.10157,6.44727 -0.69531,1 6.17773,0 0.74024,-1.19336 3.90039,-6.19336 3.86719,-6.21094 3.63867,2.13867 1.78125,7.31446 0.94726,4.14453 4.59766,0 -0.88867,-3.81445 -2.15039,-9.15625 -2.23828,-9.13477 -5.84961,-2.96289 z"
       id="path4713" />
  </g>
</svg>
